<?xml version="1.0" standalone="no"?>
<!DOCTYPE svg PUBLIC "-//W3C//DTD SVG 20010904//EN"
 "http://www.w3.org/TR/2001/REC-SVG-20010904/DTD/svg10.dtd">
<svg version="1.0" xmlns="http://www.w3.org/2000/svg"
 width="512.000000pt" height="512.000000pt" viewBox="0 0 512.000000 512.000000"
 preserveAspectRatio="xMidYMid meet">
<metadata>
Created by potrace 1.14, written by Peter Selinger 2001-2017
</metadata>
<g transform="translate(0.000000,512.000000) scale(0.100000,-0.100000)"
fill="#000000" stroke="none">
<path d="M2513 4983 c-41 -8 -80 -61 -154 -209 -117 -231 -212 -492 -269 -729
-11 -49 -23 -99 -26 -110 -2 -11 -11 -56 -19 -100 -8 -44 -16 -89 -19 -100 -2
-11 -7 -47 -11 -80 -4 -32 -8 -67 -10 -75 -3 -17 -15 -149 -20 -235 -6 -79 -6
-413 0 -495 4 -74 15 -179 18 -190 1 -3 -1 -7 -4 -10 -3 -3 -39 36 -80 85
-151 185 -418 438 -614 581 -86 63 -106 70 -146 50 -31 -15 -33 -15 -89 20
-55 34 -58 37 -58 77 -1 50 -7 55 -156 130 -205 103 -369 167 -428 167 -69 0
-138 -71 -138 -141 0 -79 88 -371 172 -569 131 -310 337 -636 572 -905 68 -78
249 -262 312 -316 l40 -36 -115 0 c-116 1 -291 -9 -343 -18 -16 -3 -40 -7 -55
-9 -231 -30 -523 -125 -733 -238 -110 -59 -129 -80 -137 -149 -6 -51 19 -103
67 -138 60 -44 285 -156 375 -187 189 -66 358 -111 480 -129 23 -3 52 -8 65
-10 89 -17 384 -24 546 -12 228 17 522 88 728 177 l46 19 0 -23 c0 -12 -4 -47
-9 -77 -9 -52 -17 -107 -27 -194 -3 -22 -9 -65 -14 -95 -5 -30 -12 -80 -15
-110 -3 -30 -8 -62 -10 -70 -10 -38 -19 -131 -20 -192 0 -58 4 -72 31 -110 16
-24 50 -54 74 -68 43 -23 53 -24 235 -25 184 -1 191 0 240 25 31 15 61 41 80
68 38 55 40 110 10 307 -3 17 -7 46 -9 65 -3 19 -10 71 -17 114 -6 44 -13 93
-15 110 -2 17 -11 82 -20 143 -9 62 -14 117 -12 123 2 6 13 5 29 -4 15 -8 72
-30 127 -49 328 -117 670 -161 1032 -134 292 22 607 107 860 232 182 89 235
129 250 187 24 86 -5 137 -107 194 -112 63 -381 173 -463 189 -8 2 -35 8 -60
15 -48 13 -54 14 -140 30 -52 10 -76 14 -145 25 -66 10 -187 17 -318 18 l-137
1 120 116 c101 97 120 121 120 146 0 17 -5 35 -11 41 -9 9 -4 21 19 50 48 61
68 76 87 65 33 -18 66 0 120 66 118 143 285 402 379 590 123 245 256 637 256
755 0 68 -71 137 -142 137 -65 0 -354 -122 -530 -222 -137 -79 -172 -101 -269
-169 -255 -178 -569 -473 -747 -704 l-23 -30 7 100 c3 55 8 118 10 140 6 56 5
408 -1 480 -10 134 -17 202 -31 295 -2 19 -7 51 -9 70 -8 62 -45 253 -66 335
-23 88 -96 329 -109 360 -5 11 -30 72 -56 135 -58 145 -166 357 -200 393 -39
43 -81 54 -151 40z"/>
</g>
</svg>
